# xmcd CD database file
#
# Track frame offsets:
#	150
#	16659
#	29876
#	45944
#	62433
#	87566
#	104459
#	125055
#	141824
#	163387
#	181202
#	196514
#	212568
#	227435
#	247345
#
# Disc length: 3997 seconds
#
# Revision: 1
# Processed by: cddbd v1.5.1PL0 Copyright (c) Steve Scherf et al.
# Submitted via: CDex 1.51
#
DISCID=cd0f9b0f
DTITLE=Scooter - Suavemente
DYEAR=2005
DGENRE=New Age
TTITLE0=Suavemente
TTITLE1=Extacy
TTITLE2=I'm Raving
TTITLE3=Weekend
TTITLE4=Acid Bomb
TTITLE5=No Fate
TTITLE6=Pulsar
TTITLE7=Rebel Yell
TTITLE8=Liquid Is Liquid
TTITLE9=Maria (I Like It Loud)
TTITLE10=The Night
TTITLE11=Jigga, jigga
TTITLE12=Shake That!
TTITLE13=Ramp
TTITLE14=Scooter Megamix
EXTD=YEAR: 2005
EXTT0=
EXTT1=
EXTT2=
EXTT3=
EXTT4=
EXTT5=
EXTT6=
EXTT7=
EXTT8=
EXTT9=
EXTT10=
EXTT11=
EXTT12=
EXTT13=
EXTT14=
PLAYORDER=
